G04*
G04 #@! TF.GenerationSoftware,Altium Limited,Altium Designer,21.8.1 (53)*
G04*
G04 Layer_Color=65535*
%FSLAX43Y43*%
%MOMM*%
G71*
G04*
G04 #@! TF.SameCoordinates,630E7A8C-55E9-46A6-B004-597E04BA2369*
G04*
G04*
G04 #@! TF.FilePolarity,Positive*
G04*
G01*
G75*
%ADD10C,0.127*%
%ADD11C,0.200*%
%ADD12C,0.254*%
%ADD13C,0.150*%
D10*
X2111Y60032D02*
G03*
X5010Y60032I1450J0D01*
G01*
X8837D02*
G03*
X11737Y60032I1450J0D01*
G01*
X15564D02*
G03*
X18463Y60032I1450J0D01*
G01*
X1360Y67532D02*
X5760D01*
Y61132D02*
Y67532D01*
X1360Y61132D02*
X5760D01*
X1360D02*
Y67532D01*
X5010Y60032D02*
Y61132D01*
X2111Y60032D02*
Y61132D01*
X8087Y67532D02*
X12487D01*
Y61132D02*
Y67532D01*
X8087Y61132D02*
X12487D01*
X8087D02*
Y67532D01*
X11737Y60032D02*
Y61132D01*
X8837Y60032D02*
Y61132D01*
X14814Y67532D02*
X19213D01*
Y61132D02*
Y67532D01*
X14814Y61132D02*
X19213D01*
X14814D02*
Y67532D01*
X18463Y60032D02*
Y61132D01*
X15564Y60032D02*
Y61132D01*
D11*
X1397Y762D02*
X3937D01*
X1397D02*
Y36322D01*
X3937D01*
Y34417D02*
Y36322D01*
Y762D02*
Y34417D01*
X4971Y39129D02*
Y43929D01*
X2151Y39559D02*
Y43499D01*
X2591Y39129D02*
X4971D01*
X2591Y43929D02*
X4971D01*
X2151Y43499D02*
X2591Y43939D01*
X2151Y39559D02*
X2591Y39119D01*
X10287Y53848D02*
Y54077D01*
Y48539D02*
Y48768D01*
Y53848D02*
X11049D01*
Y48768D02*
Y53848D01*
X9525Y48768D02*
X11049D01*
X9525D02*
Y53848D01*
X10287D01*
X3560D02*
Y54077D01*
Y48539D02*
Y48768D01*
Y53848D02*
X4323D01*
Y48768D02*
Y53848D01*
X2799Y48768D02*
X4323D01*
X2799D02*
Y53848D01*
X3560D01*
X11697Y39129D02*
Y43929D01*
X8877Y39559D02*
Y43499D01*
X9317Y39129D02*
X11697D01*
X9317Y43929D02*
X11697D01*
X8877Y43499D02*
X9317Y43939D01*
X8877Y39559D02*
X9317Y39119D01*
X17014Y53848D02*
Y54077D01*
Y48539D02*
Y48768D01*
Y53848D02*
X17775D01*
Y48768D02*
Y53848D01*
X16251Y48768D02*
X17775D01*
X16251D02*
Y53848D01*
X17014D01*
X18424Y39129D02*
Y43929D01*
X15603Y39559D02*
Y43499D01*
X16044Y39129D02*
X18424D01*
X16044Y43929D02*
X18424D01*
X15603Y43499D02*
X16044Y43939D01*
X15603Y39559D02*
X16044Y39119D01*
X16637Y36322D02*
X19177D01*
Y762D02*
Y36322D01*
X16637Y762D02*
X19177D01*
X16637D02*
Y2667D01*
Y36322D01*
D12*
X1549Y37186D02*
Y38709D01*
X2311D01*
X2565Y38455D01*
Y37947D01*
X2311Y37693D01*
X1549D01*
X3073Y37186D02*
X3581D01*
X3327D01*
Y38709D01*
X3073Y38455D01*
X4191Y45085D02*
X4191Y46101D01*
X3937Y46355D01*
X3429Y46355D01*
X3175Y46101D01*
X3175Y45085D01*
X3429Y44831D01*
X3937Y44831D01*
X3683Y45339D02*
X4191Y44831D01*
X3937Y44831D02*
X4191Y45085D01*
X4699Y44831D02*
X5207Y44831D01*
X4953Y44831D01*
X4953Y46355D01*
X4699Y46101D01*
X9677Y56693D02*
Y58216D01*
X10439D01*
X10693Y57962D01*
Y57455D01*
X10439Y57201D01*
X9677D01*
X10185D02*
X10693Y56693D01*
X12217D02*
X11201D01*
X12217Y57708D01*
Y57962D01*
X11963Y58216D01*
X11455D01*
X11201Y57962D01*
X1554Y69875D02*
Y68351D01*
X2316D01*
X2570Y68605D01*
Y69621D01*
X2316Y69875D01*
X1554D01*
X3077Y68351D02*
X3585D01*
X3331D01*
Y69875D01*
X3077Y69621D01*
X8280Y69875D02*
Y68351D01*
X9042D01*
X9296Y68605D01*
Y69621D01*
X9042Y69875D01*
X8280D01*
X10820Y68351D02*
X9804D01*
X10820Y69367D01*
Y69621D01*
X10566Y69875D01*
X10058D01*
X9804Y69621D01*
X2951Y56693D02*
Y58216D01*
X3713D01*
X3967Y57962D01*
Y57455D01*
X3713Y57201D01*
X2951D01*
X3459D02*
X3967Y56693D01*
X4474D02*
X4982D01*
X4728D01*
Y58216D01*
X4474Y57962D01*
X10058Y45060D02*
Y46075D01*
X9804Y46329D01*
X9296D01*
X9042Y46075D01*
Y45060D01*
X9296Y44806D01*
X9804D01*
X9550Y45313D02*
X10058Y44806D01*
X9804D02*
X10058Y45060D01*
X11582Y44806D02*
X10566D01*
X11582Y45821D01*
Y46075D01*
X11328Y46329D01*
X10820D01*
X10566Y46075D01*
X15007Y69875D02*
Y68351D01*
X15769D01*
X16023Y68605D01*
Y69621D01*
X15769Y69875D01*
X15007D01*
X16530Y69621D02*
X16784Y69875D01*
X17292D01*
X17546Y69621D01*
Y69367D01*
X17292Y69113D01*
X17038D01*
X17292D01*
X17546Y68859D01*
Y68605D01*
X17292Y68351D01*
X16784D01*
X16530Y68605D01*
X16404Y56693D02*
Y58216D01*
X17166D01*
X17420Y57962D01*
Y57455D01*
X17166Y57201D01*
X16404D01*
X16912D02*
X17420Y56693D01*
X17927Y57962D02*
X18181Y58216D01*
X18689D01*
X18943Y57962D01*
Y57708D01*
X18689Y57455D01*
X18435D01*
X18689D01*
X18943Y57201D01*
Y56947D01*
X18689Y56693D01*
X18181D01*
X17927Y56947D01*
X16785Y45060D02*
Y46075D01*
X16531Y46329D01*
X16023D01*
X15769Y46075D01*
Y45060D01*
X16023Y44806D01*
X16531D01*
X16277Y45313D02*
X16785Y44806D01*
X16531D02*
X16785Y45060D01*
X17292Y46075D02*
X17546Y46329D01*
X18054D01*
X18308Y46075D01*
Y45821D01*
X18054Y45567D01*
X17800D01*
X18054D01*
X18308Y45313D01*
Y45060D01*
X18054Y44806D01*
X17546D01*
X17292Y45060D01*
X16789Y37186D02*
Y38709D01*
X17551D01*
X17805Y38455D01*
Y37947D01*
X17551Y37693D01*
X16789D01*
X19329Y37186D02*
X18313D01*
X19329Y38201D01*
Y38455D01*
X19075Y38709D01*
X18567D01*
X18313Y38455D01*
D13*
X889Y40493D02*
X1139Y40743D01*
X1639D01*
X1889Y40493D01*
Y40243D01*
X1639Y39993D01*
X1389D01*
X1639D01*
X1889Y39743D01*
Y39493D01*
X1639Y39243D01*
X1139D01*
X889Y39493D01*
X1270Y42418D02*
X1770D01*
X1520D01*
Y43918D01*
X1270Y43668D01*
X7493Y40493D02*
X7743Y40743D01*
X8243D01*
X8493Y40493D01*
Y40243D01*
X8243Y39993D01*
X7993D01*
X8243D01*
X8493Y39743D01*
Y39493D01*
X8243Y39243D01*
X7743D01*
X7493Y39493D01*
X8001Y42418D02*
X8501D01*
X8251D01*
Y43918D01*
X8001Y43668D01*
X14224Y40493D02*
X14474Y40743D01*
X14974D01*
X15224Y40493D01*
Y40243D01*
X14974Y39993D01*
X14724D01*
X14974D01*
X15224Y39743D01*
Y39493D01*
X14974Y39243D01*
X14474D01*
X14224Y39493D01*
X14732Y42418D02*
X15232D01*
X14982D01*
Y43918D01*
X14732Y43668D01*
M02*
