M48
;Layer_Color=9474304
;FILE_FORMAT=4:3
METRIC,LZ
;TYPE=PLATED
T1F00S00C0.800
T2F00S00C0.850
T3F00S00C1.016
%
T01
X000356Y0040259
Y0041529
Y0042799
X0010287
Y0041529
Y0040259
X0017014
Y0041529
Y0042799
T02
X0017014Y0047498
Y0055118
X0010287
X000356
Y0047498
X0010287
T03
X0017907Y0002032
Y0004572
X0002667
Y0002032
Y0007112
Y0009652
Y0012192
Y0014732
Y0017272
Y0019812
Y0022352
Y0024892
Y0027432
Y0029972
Y0032512
Y0035052
X0017907
Y0032512
Y0029972
Y0027432
Y0024892
Y0022352
Y0019812
Y0017272
Y0014732
Y0012192
Y0009652
Y0007112
M30
