G04*
G04 #@! TF.GenerationSoftware,Altium Limited,Altium Designer,21.8.1 (53)*
G04*
G04 Layer_Physical_Order=1*
G04 Layer_Color=255*
%FSLAX43Y43*%
%MOMM*%
G71*
G04*
G04 #@! TF.SameCoordinates,630E7A8C-55E9-46A6-B004-597E04BA2369*
G04*
G04*
G04 #@! TF.FilePolarity,Positive*
G04*
G01*
G75*
%ADD21R,1.500X1.500*%
%ADD22C,1.500*%
%ADD23O,2.000X1.000*%
%ADD24O,2.000X1.000*%
%ADD25C,1.400*%
%ADD26R,1.778X1.778*%
G36*
X20943Y647D02*
X19166D01*
X19165Y774D01*
Y3290D01*
X18457D01*
X18422Y3417D01*
X18679Y3565D01*
X18914Y3800D01*
X19079Y4086D01*
X19165Y4406D01*
Y4738D01*
X19079Y5058D01*
X18914Y5344D01*
X18679Y5579D01*
X18393Y5744D01*
X18273Y5776D01*
Y5908D01*
X18393Y5940D01*
X18679Y6105D01*
X18914Y6340D01*
X19079Y6626D01*
X19165Y6946D01*
Y7278D01*
X19079Y7598D01*
X18914Y7884D01*
X18679Y8119D01*
X18393Y8284D01*
X18273Y8316D01*
Y8448D01*
X18393Y8480D01*
X18679Y8645D01*
X18914Y8880D01*
X19079Y9166D01*
X19165Y9486D01*
Y9818D01*
X19079Y10138D01*
X18914Y10424D01*
X18679Y10659D01*
X18393Y10824D01*
X18273Y10856D01*
Y10988D01*
X18393Y11020D01*
X18679Y11185D01*
X18914Y11420D01*
X19079Y11706D01*
X19165Y12026D01*
Y12358D01*
X19079Y12678D01*
X18914Y12964D01*
X18679Y13199D01*
X18393Y13364D01*
X18273Y13396D01*
Y13528D01*
X18393Y13560D01*
X18679Y13725D01*
X18914Y13960D01*
X19079Y14246D01*
X19165Y14566D01*
Y14898D01*
X19079Y15218D01*
X18914Y15504D01*
X18679Y15739D01*
X18393Y15904D01*
X18273Y15936D01*
Y16068D01*
X18393Y16100D01*
X18679Y16265D01*
X18914Y16500D01*
X19079Y16786D01*
X19165Y17106D01*
Y17438D01*
X19079Y17758D01*
X18914Y18044D01*
X18679Y18279D01*
X18393Y18444D01*
X18273Y18476D01*
Y18608D01*
X18393Y18640D01*
X18679Y18805D01*
X18914Y19040D01*
X19079Y19326D01*
X19165Y19646D01*
Y19978D01*
X19079Y20298D01*
X18914Y20584D01*
X18679Y20819D01*
X18393Y20984D01*
X18273Y21016D01*
Y21148D01*
X18393Y21180D01*
X18679Y21345D01*
X18914Y21580D01*
X19079Y21866D01*
X19165Y22186D01*
Y22518D01*
X19079Y22838D01*
X18914Y23124D01*
X18679Y23359D01*
X18393Y23524D01*
X18273Y23556D01*
Y23688D01*
X18393Y23720D01*
X18679Y23885D01*
X18914Y24120D01*
X19079Y24406D01*
X19165Y24726D01*
Y25058D01*
X19079Y25378D01*
X18914Y25664D01*
X18679Y25899D01*
X18393Y26064D01*
X18273Y26096D01*
Y26228D01*
X18393Y26260D01*
X18679Y26425D01*
X18914Y26660D01*
X19079Y26946D01*
X19165Y27266D01*
Y27598D01*
X19079Y27918D01*
X18914Y28204D01*
X18679Y28439D01*
X18393Y28604D01*
X18273Y28636D01*
Y28768D01*
X18393Y28800D01*
X18679Y28965D01*
X18914Y29200D01*
X19079Y29486D01*
X19165Y29806D01*
Y30138D01*
X19079Y30458D01*
X18914Y30744D01*
X18679Y30979D01*
X18393Y31144D01*
X18273Y31176D01*
Y31308D01*
X18393Y31340D01*
X18679Y31505D01*
X18914Y31740D01*
X19079Y32026D01*
X19165Y32346D01*
Y32678D01*
X19079Y32998D01*
X18914Y33284D01*
X18679Y33519D01*
X18393Y33684D01*
X18273Y33716D01*
Y33848D01*
X18393Y33880D01*
X18679Y34045D01*
X18914Y34280D01*
X19079Y34566D01*
X19165Y34886D01*
Y35218D01*
X19079Y35538D01*
X18914Y35824D01*
X18679Y36059D01*
X18393Y36224D01*
X18073Y36310D01*
X17741D01*
X17421Y36224D01*
X17135Y36059D01*
X16900Y35824D01*
X16735Y35538D01*
X16649Y35218D01*
Y34886D01*
X16735Y34566D01*
X16900Y34280D01*
X17135Y34045D01*
X17421Y33880D01*
X17541Y33848D01*
Y33716D01*
X17421Y33684D01*
X17135Y33519D01*
X16900Y33284D01*
X16735Y32998D01*
X16649Y32678D01*
Y32346D01*
X16735Y32026D01*
X16900Y31740D01*
X17135Y31505D01*
X17421Y31340D01*
X17541Y31308D01*
Y31176D01*
X17421Y31144D01*
X17135Y30979D01*
X16900Y30744D01*
X16735Y30458D01*
X16649Y30138D01*
Y29806D01*
X16735Y29486D01*
X16900Y29200D01*
X17135Y28965D01*
X17421Y28800D01*
X17541Y28768D01*
Y28636D01*
X17421Y28604D01*
X17135Y28439D01*
X16900Y28204D01*
X16735Y27918D01*
X16649Y27598D01*
Y27266D01*
X16735Y26946D01*
X16900Y26660D01*
X17135Y26425D01*
X17421Y26260D01*
X17541Y26228D01*
Y26096D01*
X17421Y26064D01*
X17135Y25899D01*
X16900Y25664D01*
X16735Y25378D01*
X16649Y25058D01*
Y24726D01*
X16735Y24406D01*
X16900Y24120D01*
X17135Y23885D01*
X17421Y23720D01*
X17541Y23688D01*
Y23556D01*
X17421Y23524D01*
X17135Y23359D01*
X16900Y23124D01*
X16735Y22838D01*
X16649Y22518D01*
Y22186D01*
X16735Y21866D01*
X16900Y21580D01*
X17135Y21345D01*
X17421Y21180D01*
X17541Y21148D01*
Y21016D01*
X17421Y20984D01*
X17135Y20819D01*
X16900Y20584D01*
X16735Y20298D01*
X16649Y19978D01*
Y19646D01*
X16735Y19326D01*
X16900Y19040D01*
X17135Y18805D01*
X17421Y18640D01*
X17541Y18608D01*
Y18476D01*
X17421Y18444D01*
X17135Y18279D01*
X16900Y18044D01*
X16735Y17758D01*
X16649Y17438D01*
Y17106D01*
X16735Y16786D01*
X16900Y16500D01*
X17135Y16265D01*
X17421Y16100D01*
X17541Y16068D01*
Y15936D01*
X17421Y15904D01*
X17135Y15739D01*
X16900Y15504D01*
X16735Y15218D01*
X16649Y14898D01*
Y14566D01*
X16735Y14246D01*
X16900Y13960D01*
X17135Y13725D01*
X17421Y13560D01*
X17541Y13528D01*
Y13396D01*
X17421Y13364D01*
X17135Y13199D01*
X16900Y12964D01*
X16735Y12678D01*
X16649Y12358D01*
Y12026D01*
X16735Y11706D01*
X16900Y11420D01*
X17135Y11185D01*
X17421Y11020D01*
X17541Y10988D01*
Y10856D01*
X17421Y10824D01*
X17135Y10659D01*
X16900Y10424D01*
X16735Y10138D01*
X16649Y9818D01*
Y9486D01*
X16735Y9166D01*
X16900Y8880D01*
X17135Y8645D01*
X17421Y8480D01*
X17541Y8448D01*
Y8316D01*
X17421Y8284D01*
X17135Y8119D01*
X16900Y7884D01*
X16735Y7598D01*
X16649Y7278D01*
Y6946D01*
X16735Y6626D01*
X16900Y6340D01*
X17135Y6105D01*
X17421Y5940D01*
X17541Y5908D01*
Y5776D01*
X17421Y5744D01*
X17135Y5579D01*
X16900Y5344D01*
X16735Y5058D01*
X16649Y4738D01*
Y4406D01*
X16735Y4086D01*
X16900Y3800D01*
X17135Y3565D01*
X17392Y3417D01*
X17357Y3290D01*
X16649D01*
Y774D01*
X16648Y647D01*
X2834D01*
X2833Y774D01*
X3153Y860D01*
X3439Y1025D01*
X3674Y1260D01*
X3839Y1546D01*
X3925Y1866D01*
Y2198D01*
X3839Y2518D01*
X3674Y2804D01*
X3439Y3039D01*
X3153Y3204D01*
X2833Y3290D01*
X2501D01*
X2181Y3204D01*
X1895Y3039D01*
X1660Y2804D01*
X1495Y2518D01*
X1409Y2198D01*
Y1866D01*
X1495Y1546D01*
X1660Y1260D01*
X1895Y1025D01*
X2181Y860D01*
X2501Y774D01*
X2500Y647D01*
X647D01*
Y70473D01*
X20943D01*
X20943Y647D01*
D02*
G37*
%LPC*%
G36*
X17140Y66929D02*
X14347D01*
Y64135D01*
X17140D01*
Y66929D01*
D02*
G37*
G36*
X10414D02*
X7620D01*
Y64135D01*
X10414D01*
Y66929D01*
D02*
G37*
G36*
X6227D02*
X893D01*
Y64135D01*
X6227D01*
Y66929D01*
D02*
G37*
G36*
X17173Y56326D02*
X16854D01*
X16547Y56244D01*
X16272Y56085D01*
X16047Y55860D01*
X15888Y55584D01*
X15806Y55277D01*
Y54959D01*
X15888Y54652D01*
X16047Y54376D01*
X16272Y54151D01*
X16547Y53992D01*
X16854Y53910D01*
X17173D01*
X17480Y53992D01*
X17755Y54151D01*
X17980Y54376D01*
X18139Y54652D01*
X18222Y54959D01*
Y55277D01*
X18139Y55584D01*
X17980Y55860D01*
X17755Y56085D01*
X17480Y56244D01*
X17173Y56326D01*
D02*
G37*
G36*
X10446D02*
X10128D01*
X9821Y56244D01*
X9545Y56085D01*
X9320Y55860D01*
X9161Y55584D01*
X9079Y55277D01*
Y54959D01*
X9161Y54652D01*
X9320Y54376D01*
X9545Y54151D01*
X9821Y53992D01*
X10128Y53910D01*
X10446D01*
X10753Y53992D01*
X11029Y54151D01*
X11254Y54376D01*
X11413Y54652D01*
X11495Y54959D01*
Y55277D01*
X11413Y55584D01*
X11254Y55860D01*
X11029Y56085D01*
X10753Y56244D01*
X10446Y56326D01*
D02*
G37*
G36*
X3720D02*
X3401D01*
X3094Y56244D01*
X2819Y56085D01*
X2594Y55860D01*
X2435Y55584D01*
X2352Y55277D01*
Y54959D01*
X2435Y54652D01*
X2594Y54376D01*
X2819Y54151D01*
X3094Y53992D01*
X3401Y53910D01*
X3720D01*
X4027Y53992D01*
X4302Y54151D01*
X4527Y54376D01*
X4686Y54652D01*
X4768Y54959D01*
Y55277D01*
X4686Y55584D01*
X4527Y55860D01*
X4302Y56085D01*
X4027Y56244D01*
X3720Y56326D01*
D02*
G37*
G36*
X17173Y48706D02*
X16854D01*
X16547Y48624D01*
X16272Y48465D01*
X16047Y48240D01*
X15888Y47964D01*
X15806Y47657D01*
Y47339D01*
X15888Y47032D01*
X16047Y46756D01*
X16272Y46531D01*
X16547Y46372D01*
X16854Y46290D01*
X17173D01*
X17480Y46372D01*
X17755Y46531D01*
X17980Y46756D01*
X18139Y47032D01*
X18222Y47339D01*
Y47657D01*
X18139Y47964D01*
X17980Y48240D01*
X17755Y48465D01*
X17480Y48624D01*
X17173Y48706D01*
D02*
G37*
G36*
X10446D02*
X10128D01*
X9821Y48624D01*
X9545Y48465D01*
X9320Y48240D01*
X9161Y47964D01*
X9079Y47657D01*
Y47339D01*
X9161Y47032D01*
X9320Y46756D01*
X9545Y46531D01*
X9821Y46372D01*
X10128Y46290D01*
X10446D01*
X10753Y46372D01*
X11029Y46531D01*
X11254Y46756D01*
X11413Y47032D01*
X11495Y47339D01*
Y47657D01*
X11413Y47964D01*
X11254Y48240D01*
X11029Y48465D01*
X10753Y48624D01*
X10446Y48706D01*
D02*
G37*
G36*
X3720D02*
X3401D01*
X3094Y48624D01*
X2819Y48465D01*
X2594Y48240D01*
X2435Y47964D01*
X2352Y47657D01*
Y47339D01*
X2435Y47032D01*
X2594Y46756D01*
X2819Y46531D01*
X3094Y46372D01*
X3401Y46290D01*
X3720D01*
X4027Y46372D01*
X4302Y46531D01*
X4527Y46756D01*
X4686Y47032D01*
X4768Y47339D01*
Y47657D01*
X4686Y47964D01*
X4527Y48240D01*
X4302Y48465D01*
X4027Y48624D01*
X3720Y48706D01*
D02*
G37*
G36*
X17514Y43816D02*
X16514D01*
X16250Y43781D01*
X16005Y43679D01*
X15795Y43518D01*
X15633Y43307D01*
X15531Y43062D01*
X15497Y42799D01*
X15531Y42536D01*
X15633Y42291D01*
X15730Y42164D01*
X15633Y42037D01*
X15531Y41792D01*
X15497Y41529D01*
X15531Y41266D01*
X15633Y41021D01*
X15795Y40810D01*
X15915Y40718D01*
X15855Y40639D01*
X15779Y40456D01*
X15770Y40386D01*
X18257D01*
X18248Y40456D01*
X18172Y40639D01*
X18112Y40718D01*
X18232Y40810D01*
X18394Y41021D01*
X18496Y41266D01*
X18530Y41529D01*
X18496Y41792D01*
X18394Y42037D01*
X18297Y42164D01*
X18394Y42291D01*
X18496Y42536D01*
X18530Y42799D01*
X18496Y43062D01*
X18394Y43307D01*
X18232Y43518D01*
X18022Y43679D01*
X17777Y43781D01*
X17514Y43816D01*
D02*
G37*
G36*
X10787D02*
X9787D01*
X9524Y43781D01*
X9279Y43679D01*
X9068Y43518D01*
X8907Y43307D01*
X8805Y43062D01*
X8770Y42799D01*
X8805Y42536D01*
X8907Y42291D01*
X9004Y42164D01*
X8907Y42037D01*
X8805Y41792D01*
X8770Y41529D01*
X8805Y41266D01*
X8907Y41021D01*
X9068Y40810D01*
X9189Y40718D01*
X9128Y40639D01*
X9052Y40456D01*
X9043Y40386D01*
X11531D01*
X11522Y40456D01*
X11446Y40639D01*
X11385Y40718D01*
X11506Y40810D01*
X11667Y41021D01*
X11769Y41266D01*
X11804Y41529D01*
X11769Y41792D01*
X11667Y42037D01*
X11570Y42164D01*
X11667Y42291D01*
X11769Y42536D01*
X11804Y42799D01*
X11769Y43062D01*
X11667Y43307D01*
X11506Y43518D01*
X11295Y43679D01*
X11050Y43781D01*
X10787Y43816D01*
D02*
G37*
G36*
X4061D02*
X3060D01*
X2797Y43781D01*
X2552Y43679D01*
X2342Y43518D01*
X2180Y43307D01*
X2078Y43062D01*
X2044Y42799D01*
X2078Y42536D01*
X2180Y42291D01*
X2277Y42164D01*
X2180Y42037D01*
X2078Y41792D01*
X2044Y41529D01*
X2078Y41266D01*
X2180Y41021D01*
X2342Y40810D01*
X2462Y40718D01*
X2402Y40639D01*
X2326Y40456D01*
X2317Y40386D01*
X4804D01*
X4795Y40456D01*
X4719Y40639D01*
X4659Y40718D01*
X4779Y40810D01*
X4941Y41021D01*
X5043Y41266D01*
X5077Y41529D01*
X5043Y41792D01*
X4941Y42037D01*
X4844Y42164D01*
X4941Y42291D01*
X5043Y42536D01*
X5077Y42799D01*
X5043Y43062D01*
X4941Y43307D01*
X4779Y43518D01*
X4569Y43679D01*
X4324Y43781D01*
X4061Y43816D01*
D02*
G37*
G36*
X18257Y40132D02*
X17140D01*
Y39498D01*
X17514D01*
X17710Y39524D01*
X17894Y39600D01*
X18051Y39721D01*
X18172Y39879D01*
X18248Y40062D01*
X18257Y40132D01*
D02*
G37*
G36*
X16886D02*
X15770D01*
X15779Y40062D01*
X15855Y39879D01*
X15976Y39721D01*
X16133Y39600D01*
X16317Y39524D01*
X16514Y39498D01*
X16886D01*
Y40132D01*
D02*
G37*
G36*
X11531D02*
X10414D01*
Y39498D01*
X10787D01*
X10984Y39524D01*
X11167Y39600D01*
X11325Y39721D01*
X11446Y39879D01*
X11522Y40062D01*
X11531Y40132D01*
D02*
G37*
G36*
X10160D02*
X9043D01*
X9052Y40062D01*
X9128Y39879D01*
X9249Y39721D01*
X9407Y39600D01*
X9590Y39524D01*
X9787Y39498D01*
X10160D01*
Y40132D01*
D02*
G37*
G36*
X4804D02*
X3688D01*
Y39498D01*
X4061D01*
X4257Y39524D01*
X4441Y39600D01*
X4598Y39721D01*
X4719Y39879D01*
X4795Y40062D01*
X4804Y40132D01*
D02*
G37*
G36*
X3434D02*
X2317D01*
X2326Y40062D01*
X2402Y39879D01*
X2523Y39721D01*
X2680Y39600D01*
X2864Y39524D01*
X3060Y39498D01*
X3434D01*
Y40132D01*
D02*
G37*
G36*
X3925Y36310D02*
X1409D01*
Y33794D01*
X2117D01*
X2152Y33667D01*
X1895Y33519D01*
X1660Y33284D01*
X1495Y32998D01*
X1409Y32678D01*
Y32346D01*
X1495Y32026D01*
X1660Y31740D01*
X1895Y31505D01*
X2181Y31340D01*
X2301Y31308D01*
Y31176D01*
X2181Y31144D01*
X1895Y30979D01*
X1660Y30744D01*
X1495Y30458D01*
X1409Y30138D01*
Y29806D01*
X1495Y29486D01*
X1660Y29200D01*
X1895Y28965D01*
X2181Y28800D01*
X2301Y28768D01*
Y28636D01*
X2181Y28604D01*
X1895Y28439D01*
X1660Y28204D01*
X1495Y27918D01*
X1409Y27598D01*
Y27266D01*
X1495Y26946D01*
X1660Y26660D01*
X1895Y26425D01*
X2181Y26260D01*
X2301Y26228D01*
Y26096D01*
X2181Y26064D01*
X1895Y25899D01*
X1660Y25664D01*
X1495Y25378D01*
X1409Y25058D01*
Y24726D01*
X1495Y24406D01*
X1660Y24120D01*
X1895Y23885D01*
X2181Y23720D01*
X2301Y23688D01*
Y23556D01*
X2181Y23524D01*
X1895Y23359D01*
X1660Y23124D01*
X1495Y22838D01*
X1409Y22518D01*
Y22186D01*
X1495Y21866D01*
X1660Y21580D01*
X1895Y21345D01*
X2181Y21180D01*
X2301Y21148D01*
Y21016D01*
X2181Y20984D01*
X1895Y20819D01*
X1660Y20584D01*
X1495Y20298D01*
X1409Y19978D01*
Y19646D01*
X1495Y19326D01*
X1660Y19040D01*
X1895Y18805D01*
X2181Y18640D01*
X2301Y18608D01*
Y18476D01*
X2181Y18444D01*
X1895Y18279D01*
X1660Y18044D01*
X1495Y17758D01*
X1409Y17438D01*
Y17106D01*
X1495Y16786D01*
X1660Y16500D01*
X1895Y16265D01*
X2181Y16100D01*
X2301Y16068D01*
Y15936D01*
X2181Y15904D01*
X1895Y15739D01*
X1660Y15504D01*
X1495Y15218D01*
X1409Y14898D01*
Y14566D01*
X1495Y14246D01*
X1660Y13960D01*
X1895Y13725D01*
X2181Y13560D01*
X2301Y13528D01*
Y13396D01*
X2181Y13364D01*
X1895Y13199D01*
X1660Y12964D01*
X1495Y12678D01*
X1409Y12358D01*
Y12026D01*
X1495Y11706D01*
X1660Y11420D01*
X1895Y11185D01*
X2181Y11020D01*
X2301Y10988D01*
Y10856D01*
X2181Y10824D01*
X1895Y10659D01*
X1660Y10424D01*
X1495Y10138D01*
X1409Y9818D01*
Y9486D01*
X1495Y9166D01*
X1660Y8880D01*
X1895Y8645D01*
X2181Y8480D01*
X2301Y8448D01*
Y8316D01*
X2181Y8284D01*
X1895Y8119D01*
X1660Y7884D01*
X1495Y7598D01*
X1409Y7278D01*
Y6946D01*
X1495Y6626D01*
X1660Y6340D01*
X1895Y6105D01*
X2181Y5940D01*
X2501Y5854D01*
X2833D01*
X3153Y5940D01*
X3439Y6105D01*
X3674Y6340D01*
X3839Y6626D01*
X3925Y6946D01*
Y7278D01*
X3839Y7598D01*
X3674Y7884D01*
X3439Y8119D01*
X3153Y8284D01*
X3033Y8316D01*
Y8448D01*
X3153Y8480D01*
X3439Y8645D01*
X3674Y8880D01*
X3839Y9166D01*
X3925Y9486D01*
Y9818D01*
X3839Y10138D01*
X3674Y10424D01*
X3439Y10659D01*
X3153Y10824D01*
X3033Y10856D01*
Y10988D01*
X3153Y11020D01*
X3439Y11185D01*
X3674Y11420D01*
X3839Y11706D01*
X3925Y12026D01*
Y12358D01*
X3839Y12678D01*
X3674Y12964D01*
X3439Y13199D01*
X3153Y13364D01*
X3033Y13396D01*
Y13528D01*
X3153Y13560D01*
X3439Y13725D01*
X3674Y13960D01*
X3839Y14246D01*
X3925Y14566D01*
Y14898D01*
X3839Y15218D01*
X3674Y15504D01*
X3439Y15739D01*
X3153Y15904D01*
X3033Y15936D01*
Y16068D01*
X3153Y16100D01*
X3439Y16265D01*
X3674Y16500D01*
X3839Y16786D01*
X3925Y17106D01*
Y17438D01*
X3839Y17758D01*
X3674Y18044D01*
X3439Y18279D01*
X3153Y18444D01*
X3033Y18476D01*
Y18608D01*
X3153Y18640D01*
X3439Y18805D01*
X3674Y19040D01*
X3839Y19326D01*
X3925Y19646D01*
Y19978D01*
X3839Y20298D01*
X3674Y20584D01*
X3439Y20819D01*
X3153Y20984D01*
X3033Y21016D01*
Y21148D01*
X3153Y21180D01*
X3439Y21345D01*
X3674Y21580D01*
X3839Y21866D01*
X3925Y22186D01*
Y22518D01*
X3839Y22838D01*
X3674Y23124D01*
X3439Y23359D01*
X3153Y23524D01*
X3033Y23556D01*
Y23688D01*
X3153Y23720D01*
X3439Y23885D01*
X3674Y24120D01*
X3839Y24406D01*
X3925Y24726D01*
Y25058D01*
X3839Y25378D01*
X3674Y25664D01*
X3439Y25899D01*
X3153Y26064D01*
X3033Y26096D01*
Y26228D01*
X3153Y26260D01*
X3439Y26425D01*
X3674Y26660D01*
X3839Y26946D01*
X3925Y27266D01*
Y27598D01*
X3839Y27918D01*
X3674Y28204D01*
X3439Y28439D01*
X3153Y28604D01*
X3033Y28636D01*
Y28768D01*
X3153Y28800D01*
X3439Y28965D01*
X3674Y29200D01*
X3839Y29486D01*
X3925Y29806D01*
Y30138D01*
X3839Y30458D01*
X3674Y30744D01*
X3439Y30979D01*
X3153Y31144D01*
X3033Y31176D01*
Y31308D01*
X3153Y31340D01*
X3439Y31505D01*
X3674Y31740D01*
X3839Y32026D01*
X3925Y32346D01*
Y32678D01*
X3839Y32998D01*
X3674Y33284D01*
X3439Y33519D01*
X3182Y33667D01*
X3217Y33794D01*
X3925D01*
Y36310D01*
D02*
G37*
G36*
X2799Y5576D02*
X2794D01*
Y4699D01*
X3671D01*
Y4704D01*
X3603Y4960D01*
X3470Y5188D01*
X3283Y5375D01*
X3055Y5508D01*
X2799Y5576D01*
D02*
G37*
G36*
X2540D02*
X2535D01*
X2279Y5508D01*
X2051Y5375D01*
X1864Y5188D01*
X1731Y4960D01*
X1663Y4704D01*
Y4699D01*
X2540D01*
Y5576D01*
D02*
G37*
G36*
X3671Y4445D02*
X2794D01*
Y3568D01*
X2799D01*
X3055Y3636D01*
X3283Y3769D01*
X3470Y3956D01*
X3603Y4184D01*
X3671Y4440D01*
Y4445D01*
D02*
G37*
G36*
X2540D02*
X1663D01*
Y4440D01*
X1731Y4184D01*
X1864Y3956D01*
X2051Y3769D01*
X2279Y3636D01*
X2535Y3568D01*
X2540D01*
Y4445D01*
D02*
G37*
%LPD*%
D21*
X2667Y35052D02*
D03*
X17907Y2032D02*
D03*
D22*
X2667Y32512D02*
D03*
Y29972D02*
D03*
Y27432D02*
D03*
Y24892D02*
D03*
Y22352D02*
D03*
Y19812D02*
D03*
Y17272D02*
D03*
Y14732D02*
D03*
Y12192D02*
D03*
Y9652D02*
D03*
Y7112D02*
D03*
Y4572D02*
D03*
Y2032D02*
D03*
X17907Y4572D02*
D03*
Y7112D02*
D03*
Y9652D02*
D03*
Y12192D02*
D03*
Y14732D02*
D03*
Y17272D02*
D03*
Y19812D02*
D03*
Y22352D02*
D03*
Y24892D02*
D03*
Y27432D02*
D03*
Y29972D02*
D03*
Y32512D02*
D03*
Y35052D02*
D03*
D23*
X3560Y40259D02*
D03*
Y41529D02*
D03*
X10287Y40259D02*
D03*
Y41529D02*
D03*
X17014Y40259D02*
D03*
Y41529D02*
D03*
D24*
X3560Y42799D02*
D03*
X10287D02*
D03*
X17014D02*
D03*
D25*
X10287Y47498D02*
D03*
Y55118D02*
D03*
X3560Y47498D02*
D03*
Y55118D02*
D03*
X17014Y47498D02*
D03*
Y55118D02*
D03*
D26*
X4831Y65532D02*
D03*
X2290D02*
D03*
X9017D02*
D03*
X15743D02*
D03*
M02*
