G04*
G04 #@! TF.GenerationSoftware,Altium Limited,Altium Designer,21.8.1 (53)*
G04*
G04 Layer_Color=255*
%FSLAX43Y43*%
%MOMM*%
G71*
G04*
G04 #@! TF.SameCoordinates,66F54AA5-4339-448A-9D2F-A4C3E20FB0C7*
G04*
G04*
G04 #@! TF.FilePolarity,Positive*
G04*
G01*
G75*
%ADD21R,1.500X1.500*%
%ADD22C,1.500*%
%ADD23O,2.000X1.000*%
%ADD24O,2.000X1.000*%
%ADD25C,1.400*%
%ADD26R,1.778X1.778*%
D21*
X2667Y35052D02*
D03*
X17907Y2032D02*
D03*
D22*
X2667Y32512D02*
D03*
Y29972D02*
D03*
Y27432D02*
D03*
Y24892D02*
D03*
Y22352D02*
D03*
Y19812D02*
D03*
Y17272D02*
D03*
Y14732D02*
D03*
Y12192D02*
D03*
Y9652D02*
D03*
Y7112D02*
D03*
Y4572D02*
D03*
Y2032D02*
D03*
X17907Y4572D02*
D03*
Y7112D02*
D03*
Y9652D02*
D03*
Y12192D02*
D03*
Y14732D02*
D03*
Y17272D02*
D03*
Y19812D02*
D03*
Y22352D02*
D03*
Y24892D02*
D03*
Y27432D02*
D03*
Y29972D02*
D03*
Y32512D02*
D03*
Y35052D02*
D03*
D23*
X3560Y40259D02*
D03*
Y41529D02*
D03*
X10287Y40259D02*
D03*
Y41529D02*
D03*
X17014Y40259D02*
D03*
Y41529D02*
D03*
D24*
X3560Y42799D02*
D03*
X10287D02*
D03*
X17014D02*
D03*
D25*
X10287Y47498D02*
D03*
Y55118D02*
D03*
X3560Y47498D02*
D03*
Y55118D02*
D03*
X17014Y47498D02*
D03*
Y55118D02*
D03*
D26*
X4831Y65532D02*
D03*
X2290D02*
D03*
X9017D02*
D03*
X15743D02*
D03*
M02*
